<svg xmlns="http://www.w3.org/2000/svg" viewBox="0 0 420 120" role="img" aria-label="Prestige Horizons logo">
  <defs>
    <linearGradient id="logoGlow" x1="0" y1="0" x2="1" y2="0">
      <stop offset="0%" stop-color="#35d4ff"/>
      <stop offset="50%" stop-color="#6cf5ff"/>
      <stop offset="100%" stop-color="#8b7bff"/>
    </linearGradient>
    <radialGradient id="core" cx="0.35" cy="0.35" r="0.9">
      <stop offset="0%" stop-color="#ffffff"/>
      <stop offset="60%" stop-color="#bfefff"/>
      <stop offset="100%" stop-color="#6bd8ff"/>
    </radialGradient>
  </defs>
  <rect width="420" height="120" fill="none"/>
  <circle cx="88" cy="64" r="30" fill="none" stroke="url(#logoGlow)" stroke-width="3.5"/>
  <circle cx="88" cy="64" r="18" fill="none" stroke="#3a5168" stroke-width="2" opacity="0.7"/>
  <path d="M28 74 C58 42, 118 42, 148 74" fill="none" stroke="url(#logoGlow)" stroke-width="4.5" stroke-linecap="round"/>
  <path d="M36 80 C66 58, 110 58, 140 80" fill="none" stroke="#3a5168" stroke-width="2.5" stroke-linecap="round" opacity="0.7"/>
  <circle cx="128" cy="42" r="5.5" fill="url(#core)"/>
  <circle cx="148" cy="30" r="3" fill="#8b7bff"/>
  <circle cx="160" cy="50" r="3.5" fill="#35d4ff"/>
  <path d="M128 42 L148 30 L160 50" stroke="url(#logoGlow)" stroke-width="1.6" fill="none" opacity="0.8"/>
  <circle cx="52" cy="44" r="2.8" fill="#35d4ff"/>
  <circle cx="68" cy="34" r="2.2" fill="#8b7bff"/>
  <path d="M52 44 L68 34" stroke="#6cf5ff" stroke-width="1.4" opacity="0.7"/>
  <circle cx="98" cy="26" r="3.5" fill="#ffffff"/>
  <path d="M98 26 L128 42" stroke="#6cf5ff" stroke-width="1.2" opacity="0.6"/>
</svg>
