<svg xmlns="http://www.w3.org/2000/svg" viewBox="0 0 1200 1200" role="img" aria-label="Starfield">
  <defs>
    <radialGradient id="star" cx="50%" cy="50%" r="50%">
      <stop offset="0" stop-color="#e9fbff"/>
      <stop offset="1" stop-color="#e9fbff" stop-opacity="0"/>
    </radialGradient>
    <filter id="noise" x="-20%" y="-20%" width="140%" height="140%">
      <feTurbulence type="fractalNoise" baseFrequency="0.8" numOctaves="2" stitchTiles="stitch"/>
      <feColorMatrix type="saturate" values="0"/>
      <feComponentTransfer>
        <feFuncA type="table" tableValues="0 0 0.18"/>
      </feComponentTransfer>
    </filter>
  </defs>
  <rect width="1200" height="1200" fill="transparent"/>
  <g fill="url(#star)">
    <circle cx="120" cy="140" r="2"/>
    <circle cx="240" cy="90" r="1.6"/>
    <circle cx="380" cy="210" r="2.2"/>
    <circle cx="520" cy="120" r="1.4"/>
    <circle cx="680" cy="190" r="2"/>
    <circle cx="820" cy="80" r="1.2"/>
    <circle cx="980" cy="160" r="1.9"/>
    <circle cx="1080" cy="260" r="1.4"/>
    <circle cx="160" cy="340" r="1.5"/>
    <circle cx="320" cy="420" r="2.4"/>
    <circle cx="470" cy="360" r="1.2"/>
    <circle cx="620" cy="420" r="1.8"/>
    <circle cx="760" cy="320" r="1.3"/>
    <circle cx="910" cy="420" r="2.2"/>
    <circle cx="1050" cy="360" r="1.5"/>
    <circle cx="140" cy="560" r="2"/>
    <circle cx="260" cy="640" r="1.6"/>
    <circle cx="420" cy="600" r="2.3"/>
    <circle cx="560" cy="520" r="1.3"/>
    <circle cx="740" cy="620" r="2.2"/>
    <circle cx="880" cy="560" r="1.2"/>
    <circle cx="1040" cy="620" r="2"/>
    <circle cx="160" cy="780" r="1.4"/>
    <circle cx="320" cy="860" r="2.1"/>
    <circle cx="480" cy="780" r="1.6"/>
    <circle cx="620" cy="840" r="2.4"/>
    <circle cx="780" cy="760" r="1.2"/>
    <circle cx="940" cy="860" r="2"/>
    <circle cx="1080" cy="780" r="1.5"/>
    <circle cx="200" cy="980" r="2.1"/>
    <circle cx="360" cy="1020" r="1.3"/>
    <circle cx="520" cy="960" r="2"/>
    <circle cx="700" cy="1020" r="1.5"/>
    <circle cx="880" cy="960" r="2.2"/>
    <circle cx="1040" cy="1040" r="1.2"/>
  </g>
  <rect width="1200" height="1200" filter="url(#noise)" opacity="0.18"/>
</svg>
